<?xml version="1.0" standalone="no"?>
<!DOCTYPE svg PUBLIC "-//W3C//DTD SVG 20010904//EN"
 "http://www.w3.org/TR/2001/REC-SVG-20010904/DTD/svg10.dtd">
<svg version="1.0" xmlns="http://www.w3.org/2000/svg"
 width="244.000000pt" height="244.000000pt" viewBox="0 0 244.000000 244.000000"
 preserveAspectRatio="xMidYMid meet">
<metadata>
Created by potrace 1.14, written by Peter Selinger 2001-2017
</metadata>
<g transform="translate(0.000000,244.000000) scale(0.100000,-0.100000)"
fill="#000000" stroke="none">
<path d="M1174 1775 c-4 -8 -3 -22 0 -31 3 -8 -6 -38 -20 -67 l-26 -51 -20 27
c-11 15 -25 24 -31 20 -7 -3 -9 -3 -5 2 4 4 2 15 -4 23 -7 7 -14 23 -15 35 -4
25 -3 24 -27 29 -27 5 -43 -25 -29 -54 22 -44 22 -66 0 -85 -11 -10 -17 -13
-14 -6 4 7 -1 14 -13 18 -11 4 -18 11 -15 16 10 16 -26 23 -41 7 -12 -12 -10
-19 20 -51 18 -20 39 -50 46 -67 7 -16 16 -30 20 -30 18 0 40 13 35 20 -3 5 5
6 17 2 11 -3 19 -1 16 4 -3 5 13 10 36 11 22 2 42 6 43 10 4 10 86 8 102 -1 6
-4 11 -5 11 -2 0 8 102 -25 127 -41 21 -14 23 -14 23 1 0 9 4 16 9 16 5 0 14
14 21 31 8 17 25 42 39 56 25 23 25 25 8 38 -21 15 -47 10 -47 -10 0 -7 -7
-15 -15 -19 -12 -4 -15 3 -15 34 0 22 5 49 12 59 9 15 9 23 -1 35 -27 33 -65
4 -56 -43 2 -12 0 -19 -4 -17 -11 7 -73 -59 -64 -68 4 -4 0 -4 -9 -1 -9 4 -19
18 -22 31 -4 15 -11 22 -18 18 -7 -4 -8 -3 -4 5 4 6 2 18 -4 26 -7 8 -10 25
-7 37 4 12 1 28 -5 35 -14 18 -47 16 -54 -2z"/>
<path d="M1110 1516 c-86 -24 -206 -105 -196 -132 3 -8 2 -13 -2 -13 -4 1 -9
0 -12 -1 -39 -15 -69 -4 -43 16 15 12 16 15 3 23 -8 6 -12 12 -10 14 3 2 20
14 38 26 19 13 29 27 26 34 -4 7 -4 9 1 5 10 -9 35 10 35 26 0 6 -5 4 -10 -4
-6 -10 -10 -11 -10 -2 0 6 -6 12 -13 12 -20 0 -73 -28 -87 -45 -11 -13 -14
-13 -27 2 -10 13 -16 14 -19 6 -11 -25 -46 -63 -59 -63 -8 0 -20 -12 -27 -27
l-13 -28 -320 -1 c-176 0 -326 -3 -333 -8 -15 -9 -17 -381 -3 -391 5 -3 138
-6 295 -6 l286 -1 0 -23 c0 -14 11 -32 26 -44 15 -12 44 -45 66 -73 44 -60 60
-69 105 -56 23 6 42 4 69 -7 45 -19 84 -19 110 -1 25 18 52 21 86 12 l28 -8
-20 -29 c-20 -26 -20 -28 -3 -37 10 -6 22 -11 27 -12 10 -1 38 49 32 59 -2 3
29 6 69 6 43 0 73 -4 72 -10 -1 -5 4 -9 11 -7 8 1 11 -2 7 -8 -3 -5 -1 -10 5
-10 6 0 8 -4 5 -10 -11 -18 5 -31 26 -20 24 14 24 31 -1 58 l-20 21 46 7 c37
5 53 2 84 -15 37 -20 39 -21 86 -3 27 9 50 20 52 24 2 3 19 0 39 -8 46 -20 74
-12 96 25 10 17 40 52 67 78 28 26 50 56 50 66 0 21 -23 19 299 18 184 -1 268
2 277 10 11 9 14 51 14 189 0 98 -3 185 -6 194 -5 14 -45 16 -345 16 l-339 0
-6 26 c-4 14 -17 30 -30 34 -13 5 -33 24 -44 42 -19 31 -19 31 -27 10 l-9 -23
-23 25 c-13 14 -28 23 -32 20 -5 -3 -9 -1 -9 4 0 11 -69 26 -77 18 -9 -9 18
-36 30 -29 6 3 7 1 3 -5 -4 -7 11 -23 35 -39 30 -20 38 -29 26 -31 -23 -5 -21
-17 6 -35 l22 -16 -30 0 c-23 0 -41 11 -79 49 -44 46 -78 67 -60 38 4 -7 3 -8
-5 -4 -6 4 -9 11 -6 16 3 5 -8 16 -26 25 -84 44 -189 56 -279 31z m455 -723
c0 -1 -17 3 -37 9 -35 11 -36 12 -21 34 l15 24 23 -33 c12 -17 21 -33 20 -34z"/>
</g>
</svg>
